<?xml version="1.0" encoding="UTF-8" standalone="no"?>
<!-- Generator: Adobe Illustrator 24.3.0, SVG Export Plug-In . SVG Version: 6.00 Build 0)  -->

<svg
   version="1.0"
   id="katman_1"
   x="0px"
   y="0px"
   viewBox="0 0 128 47.999998"
   xml:space="preserve"
   sodipodi:docname="make.svg"
   width="128"
   height="48"
   inkscape:version="1.3.2 (091e20e, 2023-11-25)"
   xmlns:inkscape="http://www.inkscape.org/namespaces/inkscape"
   xmlns:sodipodi="http://sodipodi.sourceforge.net/DTD/sodipodi-0.dtd"
   xmlns:xlink="http://www.w3.org/1999/xlink"
   xmlns="http://www.w3.org/2000/svg"
   xmlns:svg="http://www.w3.org/2000/svg"><defs
   id="defs19" /><sodipodi:namedview
   id="namedview19"
   pagecolor="#ffffff"
   bordercolor="#000000"
   borderopacity="0.25"
   inkscape:showpageshadow="2"
   inkscape:pageopacity="0.0"
   inkscape:pagecheckerboard="0"
   inkscape:deskcolor="#d1d1d1"
   inkscape:zoom="1.9267561"
   inkscape:cx="57.090775"
   inkscape:cy="30.102408"
   inkscape:window-width="1312"
   inkscape:window-height="449"
   inkscape:window-x="181"
   inkscape:window-y="154"
   inkscape:window-maximized="0"
   inkscape:current-layer="katman_1" />
<style
   type="text/css"
   id="style1">
	.st0{clip-path:url(#SVGID_2_);}
	.st1{clip-path:url(#SVGID_4_);}
	.st2{clip-path:url(#SVGID_8_);}
	.st3{clip-path:url(#SVGID_10_);}
	.st4{clip-path:url(#SVGID_12_);}
	.st5{fill:#6C00CB;}
	.st6{clip-path:url(#SVGID_14_);}
	.st7{clip-path:url(#SVGID_16_);}
	.st8{fill:#1D1D1B;}
</style>





<g
   id="g20"
   transform="matrix(0.88968397,0,0,0.88968397,7.022452,2.3199595)"><g
     id="Group_7"
     transform="matrix(0.19296642,0,0,0.19296642,-16.533384,-34.775957)">
	<g
   id="g6">
		<g
   id="g5">
			<defs
   id="defs1">
				<path
   id="SVGID_1_"
   d="m 235.87,330.73 h -24.49 c -1.87,0 -3.38,-1.52 -3.38,-3.38 0,0 0,0 0,0 v -90.42 c 0,-1.87 1.52,-3.38 3.38,-3.38 0,0 0,0 0,0 h 24.49 c 1.87,0 3.38,1.51 3.38,3.38 0,0 0,0 0,0 v 90.42 c 0,1.86 -1.51,3.38 -3.38,3.38 z m -109.01,-1.17 40.6,-80.79 c 0.84,-1.67 0.17,-3.7 -1.5,-4.54 l -21.88,-11 c -1.67,-0.84 -3.7,-0.17 -4.54,1.5 l -40.6,80.79 c -0.84,1.67 -0.17,3.7 1.5,4.54 l 21.88,11 c 1.67,0.83 3.7,0.16 4.54,-1.5 z m 60.09,-0.32 17.37,-88.06 c 0.36,-1.83 -0.82,-3.6 -2.65,-3.97 l -24.01,-4.85 c -1.83,-0.37 -3.62,0.82 -3.99,2.65 0,0 0,0.01 0,0.01 l -17.37,88.06 c -0.36,1.83 0.82,3.6 2.65,3.97 l 24.01,4.85 c 1.83,0.37 3.62,-0.82 3.99,-2.65 z" />
			</defs>
			<clipPath
   id="SVGID_2_">
				<use
   xlink:href="#SVGID_1_"
   style="overflow:visible"
   id="use1" />
			</clipPath>
			<g
   id="Group_6_9_"
   class="st0"
   clip-path="url(#SVGID_2_)">
				<g
   id="Group_5_9_">
					<g
   id="Group_4_9_">
						<g
   id="g4">
							<defs
   id="defs2">
								<rect
   id="SVGID_3_"
   x="90.010002"
   y="223.75"
   width="157.78"
   height="116.77" />
							</defs>
							<clipPath
   id="SVGID_4_">
								<use
   xlink:href="#SVGID_3_"
   style="overflow:visible"
   id="use2" />
							</clipPath>
							<g
   id="Group_3_9_"
   class="st1"
   clip-path="url(#SVGID_4_)">
								<g
   id="Group_2_9_">
									<g
   id="g3">
										<defs
   id="defs3">
											<rect
   id="SVGID_5_"
   x="90.010002"
   y="223.75"
   width="157.78"
   height="116.77" />
										</defs>
										<clipPath
   id="SVGID_6_">
											<use
   xlink:href="#SVGID_5_"
   style="overflow:visible"
   id="use3" />
										</clipPath>
									</g>
								</g>
							</g>
						</g>
					</g>
				</g>
			</g>
		</g>
	</g>
	<g
   id="g14">
		<g
   id="g13">
			<defs
   id="defs6">
				<path
   id="SVGID_7_"
   d="m 235.87,330.73 h -24.49 c -1.87,0 -3.38,-1.52 -3.38,-3.38 0,0 0,0 0,0 v -90.42 c 0,-1.87 1.52,-3.38 3.38,-3.38 0,0 0,0 0,0 h 24.49 c 1.87,0 3.38,1.51 3.38,3.38 0,0 0,0 0,0 v 90.42 c 0,1.86 -1.51,3.38 -3.38,3.38 z m -109.01,-1.17 40.6,-80.79 c 0.84,-1.67 0.17,-3.7 -1.5,-4.54 l -21.88,-11 c -1.67,-0.84 -3.7,-0.17 -4.54,1.5 l -40.6,80.79 c -0.84,1.67 -0.17,3.7 1.5,4.54 l 21.88,11 c 1.67,0.83 3.7,0.16 4.54,-1.5 z m 60.09,-0.32 17.37,-88.06 c 0.36,-1.83 -0.82,-3.6 -2.65,-3.97 l -24.01,-4.85 c -1.83,-0.37 -3.62,0.82 -3.99,2.65 0,0 0,0.01 0,0.01 l -17.37,88.06 c -0.36,1.83 0.82,3.6 2.65,3.97 l 24.01,4.85 c 1.83,0.37 3.62,-0.82 3.99,-2.65 z" />
			</defs>
			<use
   xlink:href="#SVGID_7_"
   style="overflow:visible;fill:#6c00cb"
   id="use6" />
			<clipPath
   id="SVGID_8_">
				<use
   xlink:href="#SVGID_7_"
   style="overflow:visible"
   id="use7" />
			</clipPath>
			<g
   id="Group_6_8_"
   class="st2"
   clip-path="url(#SVGID_8_)">
				<g
   id="Group_5_8_">
					<g
   id="Group_4_8_">
						<g
   id="g12">
							<defs
   id="defs7">
								<rect
   id="SVGID_9_"
   x="90.010002"
   y="223.75"
   width="157.78"
   height="116.77" />
							</defs>
							<use
   xlink:href="#SVGID_9_"
   style="overflow:visible;fill:#6c00cb"
   id="use8" />
							<clipPath
   id="SVGID_10_">
								<use
   xlink:href="#SVGID_9_"
   style="overflow:visible"
   id="use9" />
							</clipPath>
							<g
   id="Group_3_8_"
   class="st3"
   clip-path="url(#SVGID_10_)">
								<g
   id="Group_2_8_">
									<g
   id="g11">
										<defs
   id="defs9">
											<rect
   id="SVGID_11_"
   x="90.010002"
   y="223.75"
   width="157.78"
   height="116.77" />
										</defs>
										<use
   xlink:href="#SVGID_11_"
   style="overflow:visible;fill:#6c00cb"
   id="use10" />
										<clipPath
   id="SVGID_12_">
											<use
   xlink:href="#SVGID_11_"
   style="overflow:visible"
   id="use11" />
										</clipPath>
										<g
   id="Group_1_8_"
   class="st4"
   clip-path="url(#SVGID_12_)">
											<rect
   id="Rectangle_1_8_"
   x="89.529999"
   y="222.95"
   class="st5"
   width="158.32001"
   height="118.13" />
										</g>
									</g>
								</g>
							</g>
						</g>
					</g>
				</g>
			</g>
		</g>
	</g>
	<g
   id="g19">
		<g
   id="g18">
			<defs
   id="defs14">
				<path
   id="SVGID_13_"
   d="m 235.87,330.73 h -24.49 c -1.87,0 -3.38,-1.52 -3.38,-3.38 0,0 0,0 0,0 v -90.42 c 0,-1.87 1.52,-3.38 3.38,-3.38 0,0 0,0 0,0 h 24.49 c 1.87,0 3.38,1.51 3.38,3.38 0,0 0,0 0,0 v 90.42 c 0,1.86 -1.51,3.38 -3.38,3.38 z m -109.01,-1.17 40.6,-80.79 c 0.84,-1.67 0.17,-3.7 -1.5,-4.54 l -21.88,-11 c -1.67,-0.84 -3.7,-0.17 -4.54,1.5 l -40.6,80.79 c -0.84,1.67 -0.17,3.7 1.5,4.54 l 21.88,11 c 1.67,0.83 3.7,0.16 4.54,-1.5 z m 60.09,-0.32 17.37,-88.06 c 0.36,-1.83 -0.82,-3.6 -2.65,-3.97 l -24.01,-4.85 c -1.83,-0.37 -3.62,0.82 -3.99,2.65 0,0 0,0.01 0,0.01 l -17.37,88.06 c -0.36,1.83 0.82,3.6 2.65,3.97 l 24.01,4.85 c 1.83,0.37 3.62,-0.82 3.99,-2.65 z" />
			</defs>
			<clipPath
   id="SVGID_14_">
				<use
   xlink:href="#SVGID_13_"
   style="overflow:visible"
   id="use14" />
			</clipPath>
			<g
   id="Group_6_7_"
   class="st6"
   clip-path="url(#SVGID_14_)">
				<g
   id="Group_5_7_">
					<g
   id="Group_4_7_">
						<g
   id="g17">
							<defs
   id="defs15">
								<rect
   id="SVGID_15_"
   x="90.010002"
   y="223.75"
   width="157.78"
   height="116.77" />
							</defs>
							<clipPath
   id="SVGID_16_">
								<use
   xlink:href="#SVGID_15_"
   style="overflow:visible"
   id="use15" />
							</clipPath>
							<g
   id="Group_3_7_"
   class="st7"
   clip-path="url(#SVGID_16_)">
								<g
   id="Group_2_7_">
									<g
   id="g16">
										<defs
   id="defs16">
											<rect
   id="SVGID_17_"
   x="90.010002"
   y="223.75"
   width="157.78"
   height="116.77" />
										</defs>
										<clipPath
   id="SVGID_18_">
											<use
   xlink:href="#SVGID_17_"
   style="overflow:visible"
   id="use16" />
										</clipPath>
									</g>
								</g>
							</g>
						</g>
					</g>
				</g>
			</g>
		</g>
	</g>
</g><path
     id="Path_2"
     class="st8"
     d="m 44.654337,17.321115 v 11.087853 c 0,0.360844 -0.291375,0.652226 -0.652226,0.652226 0,0 0,0 0,0 h -4.791353 c -0.360851,0 -0.652226,-0.29331 -0.652226,-0.652226 0,0 0,0 0,0 V 10.899191 c 0,-0.360844 0.293304,-0.652226 0.652226,-0.652226 0,0 0,0 0,0 h 4.791353 c 0.360851,0 0.652226,0.291382 0.652226,0.652226 0,0 0,0 0,0 v 1.379713 c 1.204115,-1.505139 2.898358,-2.4468186 5.267987,-2.4468186 2.221042,0 4.139127,0.9030846 5.306576,2.5973276 1.429879,-1.694243 3.461818,-2.5973276 5.945296,-2.5973276 4.214382,0 7.112739,2.4834786 7.112739,7.2246656 v 11.350282 c 0,0.360851 -0.291381,0.652225 -0.652226,0.652225 0,0 0,0 0,0 H 62.84335 c -0.360844,0 -0.652226,-0.291374 -0.652226,-0.652225 0,0 0,0 0,0 V 18.334186 c 0,-2.070528 -1.167443,-3.085532 -2.747836,-3.085532 -1.317965,0 -2.371559,0.827823 -2.973613,2.070533 v 11.087846 c 0,0.360851 -0.291382,0.652225 -0.652226,0.652225 0,0 0,0 0,0 h -4.789431 c -0.360845,0 -0.652227,-0.293304 -0.652227,-0.652225 0,0 0,0 0,0 V 18.334186 c 0,-2.070528 -1.165513,-3.085532 -2.747842,-3.085532 -1.354624,0.0038 -2.369623,0.831686 -2.973612,2.072461 z"
     style="stroke-width:0.192966" /><path
     id="Path_3"
     class="st8"
     d="m 76.298902,29.439407 c -3.537079,0 -6.51069,-2.332964 -6.51069,-5.945296 0,-3.311303 2.182453,-4.855037 6.246326,-5.908631 l 5.192727,-1.354624 c -0.150516,-1.240775 -1.128855,-1.844764 -2.709248,-1.844764 -1.400939,0 -2.408224,0.536448 -2.87134,1.607411 -0.12157,0.301031 -0.441898,0.468908 -0.758362,0.399446 l -4.115973,-0.978347 c -0.35313,-0.08297 -0.57118,-0.436098 -0.486276,-0.789229 0.0058,-0.02507 0.0135,-0.04827 0.02121,-0.07139 1.18289,-3.197453 4.465247,-4.872405 8.436495,-4.872405 5.343241,0 8.428773,2.522074 8.428773,6.962231 v 11.765166 c 0,0.360844 -0.291382,0.652226 -0.652226,0.652226 0,0 0,0 0,0 h -4.542427 c -0.355059,0 -0.644512,-0.283661 -0.652232,-0.638721 l -0.02314,-0.980267 -0.03664,0.03664 c -1.541806,1.319892 -3.046945,1.960541 -4.966957,1.960541 z m 1.541799,-4.704521 c 0.791165,0 1.391291,-0.22577 2.294376,-0.75257 l 1.053594,-0.638721 0.03664,-3.048867 -2.709247,0.75257 c -1.844765,0.526794 -2.670661,0.978339 -2.670661,2.031933 0.002,1.167449 1.016934,1.655655 1.995273,1.655655 z"
     style="stroke-width:0.192966" /><path
     id="Path_4"
     class="st8"
     d="m 96.907715,20.182808 -1.844757,1.694243 v 6.533845 c 0,0.360844 -0.291382,0.652226 -0.652233,0.652226 0,0 0,0 0,0 h -4.677504 c -0.360845,0 -0.652226,-0.291382 -0.652226,-0.652226 0,0 0,0 0,0 V 4.7281247 c 0,-0.3608443 0.291381,-0.6522261 0.652226,-0.6522261 0,0 0,0 0,0 h 4.677504 c 0.360851,0 0.652233,0.2913818 0.652233,0.6522261 0,0 0,0 0,0 V 15.44162 l 5.457082,-5.020985 c 0.11964,-0.111921 0.27788,-0.171742 0.4419,-0.171742 h 5.77548 c 0.36085,0 0.65223,0.291382 0.65223,0.652226 0,0.183318 -0.0772,0.358923 -0.21227,0.482421 l -5.60374,5.11168 6.39105,11.601139 c 0.17367,0.316465 0.0598,0.713976 -0.25665,0.887645 -0.0965,0.05399 -0.20454,0.08104 -0.31453,0.08104 h -5.46095 c -0.24314,0 -0.46698,-0.135074 -0.5789,-0.351195 z"
     style="stroke-width:0.192966" /><path
     id="Path_5"
     class="st8"
     d="m 116.75817,29.476066 c -5.23132,0 -10.00917,-3.274636 -10.00917,-9.897247 0,-6.246321 4.59067,-9.8605826 9.63288,-9.8605826 5.23132,0 9.03083,3.6509286 9.18134,9.4071146 0.0173,0.607845 0.0271,1.032367 0.0328,1.333398 0.006,0.358915 -0.28172,0.654155 -0.64258,0.659946 -0.003,0 -0.008,0 -0.0116,0 h -12.1743 c 0.18911,2.257703 1.99527,3.687588 4.28964,3.687588 1.53602,0.03471 2.99292,-0.675388 3.9095,-1.906507 0.20841,-0.272085 0.59241,-0.335762 0.87607,-0.14473 l 3.04115,2.035797 c 0.30103,0.204544 0.38014,0.615566 0.1756,0.91659 0,0 -0.002,0.002 -0.002,0.002 -1.62671,2.402432 -4.3128,3.766705 -8.29949,3.766705 z m -3.87476,-12.041102 h 6.58594 c -0.0366,-2.145788 -1.619,-3.085532 -3.27464,-3.085532 -1.54374,0 -3.12413,0.903085 -3.3113,3.085532 z"
     style="stroke-width:0.192966" /><g
     id="Group_11"
     transform="matrix(0.19296642,0,0,0.19296642,-16.533384,-34.775957)">
	<g
   id="Group_10">
		<path
   id="Path_6"
   class="st8"
   d="m 291.45,377.42 v 23.14 h -4.47 v -23.14 h -4.25 v -3.92 h 4.25 v -4.31 c -0.2,-2.35 0.6,-4.68 2.21,-6.41 1.55,-1.42 3.59,-2.17 5.69,-2.1 2.64,-0.2 5.22,0.82 7.02,2.76 l -2.93,2.87 c -0.97,-1.05 -2.34,-1.63 -3.76,-1.6 -1.93,0 -3.76,0.99 -3.76,4.25 v 4.53 h 6.52 v 3.92 z" />
		<path
   id="Path_7"
   class="st8"
   d="m 298.64,386.92 c 0,-8.4 5.64,-14.08 12.98,-14.08 7.46,0 12.99,5.69 12.99,14.08 0,8.29 -5.52,14.2 -12.99,14.2 -7.51,-0.01 -12.98,-5.92 -12.98,-14.2 z m 21.32,0 c 0,-6.19 -3.59,-9.94 -8.34,-9.94 -4.8,0 -8.34,3.65 -8.34,9.94 0,6.19 3.54,10.05 8.34,10.05 4.87,0 8.34,-3.81 8.34,-10.05 z" />
		<path
   id="Path_8"
   class="st8"
   d="m 333.81,381.78 v 18.78 h -4.54 V 373.5 h 4.53 v 3.2 c 1.1,-2.17 3.31,-3.55 5.74,-3.59 1.59,-0.04 3.16,0.42 4.47,1.33 l -1.93,4.14 c -0.95,-0.72 -2.12,-1.11 -3.31,-1.1 -2.39,0.26 -4.36,1.97 -4.96,4.3 z" />
		<path
   id="Path_9"
   class="st8"
   d="m 351.59,382.83 v 17.73 h -4.53 V 373.5 h 4.53 v 3.2 c 1.7,-2.49 4.56,-3.93 7.57,-3.81 3.41,-0.23 6.62,1.63 8.12,4.69 1.93,-3.02 5.3,-4.81 8.89,-4.69 5.69,0 9.44,3.65 9.44,11.11 v 16.58 h -4.53 V 384.4 c 0,-4.75 -1.88,-7.35 -5.74,-7.35 -3.37,0.1 -6.19,2.58 -6.74,5.91 v 17.62 h -4.53 V 384.4 c 0,-4.75 -1.88,-7.35 -5.74,-7.35 -3.34,0.08 -6.15,2.5 -6.74,5.78 z" />
		<path
   id="Path_10"
   class="st8"
   d="m 403.14,401.06 c -7.35,0 -13.09,-5.41 -13.09,-14.31 0,-8.45 5.47,-13.92 12.7,-13.92 7.12,0 11.54,4.75 12.04,12.32 0.05,0.83 0.11,1.77 0.11,2.48 h -20.27 c 0.17,5.91 4.03,9.5 8.67,9.5 3.25,0.03 6.27,-1.65 7.95,-4.42 l 3.31,2.38 c -2.46,3.89 -6.82,6.16 -11.42,5.97 z m -8.4,-17.24 h 15.47 c -0.15,-4.02 -3.5,-7.17 -7.52,-7.07 -4.13,-0.19 -7.66,2.95 -7.95,7.07 z" />
		<path
   id="Path_11"
   class="st8"
   d="m 424.05,381.78 v 18.78 h -4.54 V 373.5 h 4.53 v 3.2 c 1.1,-2.17 3.31,-3.55 5.74,-3.59 1.59,-0.04 3.16,0.42 4.47,1.33 l -1.93,4.14 c -0.95,-0.72 -2.12,-1.11 -3.31,-1.1 -2.39,0.26 -4.36,1.97 -4.96,4.3 z" />
		<path
   id="Path_12"
   class="st8"
   d="m 437.3,360.9 h 4.53 v 39.66 h -4.53 z" />
		<path
   id="Path_13"
   class="st8"
   d="m 448.03,411.05 6.57,-15.02 -9.72,-22.53 h 4.81 l 7.35,17.45 7.12,-17.45 h 4.69 l -16.19,37.56 h -4.63 z" />
		<path
   id="Path_14"
   class="st8"
   d="m 484.99,361.89 h 4.8 v 38.66 h -4.8 z" />
		<path
   id="Path_15"
   class="st8"
   d="m 501.42,382.89 v 17.67 h -4.53 V 373.5 h 4.53 v 3.65 c 1.72,-2.77 4.8,-4.4 8.06,-4.25 6.02,0 10,3.65 10,11.11 v 16.58 h -4.53 v -16.18 c 0,-4.92 -2.26,-7.35 -6.3,-7.35 -3.45,0.08 -6.41,2.47 -7.23,5.83 z" />
		<path
   id="Path_16"
   class="st8"
   d="m 533.74,401.06 c -4.14,0 -7.29,-2.16 -7.29,-7.68 v -15.96 h -4.25 v -3.92 h 4.25 v -8.01 h 4.47 v 8.01 h 8.5 v 3.92 h -8.5 v 15.69 c 0,2.98 1.54,3.92 3.26,3.92 1.27,-0.01 2.48,-0.57 3.31,-1.54 l 2.65,2.76 c -1.59,1.86 -3.95,2.89 -6.4,2.81 z" />
		<path
   id="Path_17"
   class="st8"
   d="m 553.59,401.06 c -7.35,0 -13.09,-5.41 -13.09,-14.31 0,-8.45 5.47,-13.92 12.7,-13.92 7.12,0 11.54,4.75 12.04,12.32 0.05,0.83 0.11,1.77 0.11,2.48 h -20.27 c 0.17,5.91 4.03,9.5 8.67,9.5 3.25,0.03 6.27,-1.65 7.95,-4.42 l 3.32,2.38 c -2.47,3.89 -6.82,6.16 -11.43,5.97 z m -8.39,-17.24 h 15.47 c -0.15,-4.01 -3.5,-7.16 -7.51,-7.07 -4.14,-0.19 -7.67,2.95 -7.96,7.07 z" />
		<path
   id="Path_18"
   class="st8"
   d="m 579.93,411.66 h -2.21 c -6.35,0 -10.94,-2.49 -10.94,-7.29 0,-3.2 2.32,-5.41 5.8,-6.46 -1.24,-0.62 -2.03,-1.87 -2.05,-3.26 0.06,-1.77 1.17,-3.34 2.82,-3.98 -3.11,-1.58 -5.04,-4.8 -4.97,-8.29 0,-5.8 4.8,-9.5 10.49,-9.5 2.38,0 3.65,0.61 7.57,0.61 h 5.52 v 3.7 h -4.53 c 1.14,1.49 1.76,3.32 1.77,5.19 0,5.8 -4.64,9.56 -10.33,9.56 -3.26,0 -3.98,1.44 -3.98,2.32 0,1.38 1.22,1.99 3.31,2.1 l 4.53,0.22 c 5.69,0.28 8.28,3.37 8.28,7.29 0.02,4.64 -4.17,7.79 -11.08,7.79 z m 0,-3.81 c 4.31,0 6.63,-1.49 6.63,-3.81 0,-2.32 -1.88,-3.76 -5.69,-3.76 H 578 c -4.26,0.11 -6.74,1.16 -6.74,3.87 0,2.49 2.65,3.7 6.57,3.7 z m -1.05,-19.72 c 3.16,-0.19 5.56,-2.91 5.37,-6.07 -0.19,-3.16 -2.91,-5.56 -6.07,-5.37 -3.01,0.18 -5.36,2.67 -5.38,5.69 -0.06,3.12 2.43,5.7 5.56,5.76 0.18,0.01 0.35,0 0.52,-0.01 z" />
		<path
   id="Path_19"
   class="st8"
   d="m 600.04,381.78 v 18.78 h -4.53 V 373.5 h 4.53 v 3.2 c 1.1,-2.17 3.31,-3.55 5.74,-3.59 1.59,-0.04 3.16,0.42 4.47,1.33 l -1.93,4.14 c -0.95,-0.72 -2.12,-1.11 -3.32,-1.1 -2.38,0.26 -4.36,1.97 -4.96,4.3 z" />
		<path
   id="Path_20"
   class="st8"
   d="m 610.24,386.92 c 0,-8.4 5.64,-14.08 12.98,-14.08 7.46,0 12.98,5.69 12.98,14.08 0,8.29 -5.52,14.2 -12.98,14.2 -7.51,-0.01 -12.98,-5.92 -12.98,-14.2 z m 21.32,0 c 0,-6.19 -3.59,-9.94 -8.34,-9.94 -4.81,0 -8.34,3.65 -8.34,9.94 0,6.19 3.53,10.05 8.34,10.05 4.86,0 8.34,-3.81 8.34,-10.05 z" />
		<path
   id="Path_21"
   class="st8"
   d="m 645.4,382.83 v 17.73 h -4.53 V 373.5 h 4.53 v 3.2 c 1.7,-2.49 4.56,-3.93 7.57,-3.81 3.41,-0.23 6.62,1.63 8.12,4.69 1.93,-3.02 5.3,-4.81 8.89,-4.69 5.69,0 9.44,3.65 9.44,11.11 v 16.58 h -4.53 V 384.4 c 0,-4.75 -1.88,-7.35 -5.75,-7.35 -3.37,0.1 -6.19,2.58 -6.74,5.91 v 17.62 h -4.53 V 384.4 c 0,-4.75 -1.88,-7.35 -5.75,-7.35 -3.32,0.08 -6.13,2.5 -6.72,5.78 z" />
		<path
   id="Path_22"
   class="st8"
   d="m 692.92,401 c -4.47,0 -9.06,-2.93 -9.06,-8.29 0,-4.53 3.09,-7.01 9.94,-8.84 l 7.4,-1.93 c -0.28,-3.2 -2.87,-4.97 -6.3,-4.97 -2.95,-0.13 -5.71,1.46 -7.07,4.09 l -3.76,-2.05 c 2.25,-4.03 6.6,-6.43 11.21,-6.18 5.8,0 10.39,2.93 10.39,9.72 v 18.01 h -4.42 v -2.98 l -0.55,0.44 c -2.15,1.89 -4.91,2.96 -7.78,2.98 z m 7.13,-6.63 1.16,-0.88 v -7.67 l -5.85,1.54 c -4.81,1.27 -6.96,2.43 -6.96,5.25 0.14,2.62 2.38,4.63 5,4.48 0.05,0 0.09,-0.01 0.14,-0.01 2.42,-0.08 4.74,-1.04 6.51,-2.71 z" />
		<path
   id="Path_23"
   class="st8"
   d="m 720.04,401.06 c -4.14,0 -7.29,-2.16 -7.29,-7.68 v -15.96 h -4.25 v -3.92 h 4.25 v -8.01 h 4.47 v 8.01 h 8.51 v 3.92 h -8.51 v 15.69 c 0,2.98 1.55,3.92 3.26,3.92 1.27,-0.01 2.48,-0.57 3.31,-1.54 l 2.65,2.76 c -1.59,1.86 -3.95,2.89 -6.4,2.81 z" />
	</g>
</g></g>
</svg>
