<?xml version="1.0" encoding="UTF-8" standalone="no"?>
<!-- Generator: Adobe Illustrator 26.0.3, SVG Export Plug-In . SVG Version: 6.00 Build 0)  -->

<svg
   version="1.0"
   id="katman_1"
   x="0px"
   y="0px"
   viewBox="0 0 120 48"
   xml:space="preserve"
   sodipodi:docname="n8n.svg"
   width="120"
   height="48"
   inkscape:version="1.3.2 (091e20e, 2023-11-25)"
   xmlns:inkscape="http://www.inkscape.org/namespaces/inkscape"
   xmlns:sodipodi="http://sodipodi.sourceforge.net/DTD/sodipodi-0.dtd"
   xmlns="http://www.w3.org/2000/svg"
   xmlns:svg="http://www.w3.org/2000/svg"><defs
   id="defs1" /><sodipodi:namedview
   id="namedview1"
   pagecolor="#ffffff"
   bordercolor="#000000"
   borderopacity="0.25"
   inkscape:showpageshadow="2"
   inkscape:pageopacity="0.0"
   inkscape:pagecheckerboard="0"
   inkscape:deskcolor="#d1d1d1"
   inkscape:zoom="2.7559871"
   inkscape:cx="52.612729"
   inkscape:cy="22.133631"
   inkscape:window-width="1312"
   inkscape:window-height="449"
   inkscape:window-x="96"
   inkscape:window-y="228"
   inkscape:window-maximized="0"
   inkscape:current-layer="katman_1" />
<style
   type="text/css"
   id="style1">
	.st0{fill:#ED6C5D;}
	.st1{fill:#394D5B;}
</style>
<g
   id="nav-menu-_x28_V1_x29_"
   transform="matrix(0.24061495,0,0,0.24061495,-12.223982,-30.198517)">
	<g
   id="nav-menu-_x28_v1_x29_"
   transform="translate(-120,-116)">
		<g
   id="n8"
   transform="translate(120,116)">
			<path
   id="Shape"
   class="st0"
   d="m 255.2,176.9 c -9.1,0 -16.7,6.2 -18.8,14.6 h -27.1 c -10.6,0 -19.3,8.6 -19.3,19.3 0,5.3 -4.3,9.6 -9.6,9.6 h -3.9 c -2.1,-8.4 -9.8,-14.6 -18.8,-14.6 -9.1,0 -16.7,6.2 -18.8,14.6 h -15.5 c -2.1,-8.4 -9.8,-14.6 -18.8,-14.6 -10.7,0 -19.4,8.7 -19.4,19.4 0,10.7 8.7,19.4 19.4,19.4 9.1,0 16.7,-6.2 18.8,-14.6 h 15.5 c 2.1,8.4 9.8,14.6 18.8,14.6 9,0 16.6,-6.1 18.8,-14.5 h 3.9 c 5.3,0 9.6,4.3 9.6,9.6 0,10.6 8.6,19.3 19.3,19.3 h 6.3 c 2.1,8.4 9.8,14.6 18.8,14.6 10.7,0 19.4,-8.7 19.4,-19.4 0,-10.7 -8.7,-19.4 -19.4,-19.4 -9.1,0 -16.7,6.2 -18.8,14.6 h -6.3 c -5.3,0 -9.6,-4.3 -9.6,-9.6 0,-5.8 -2.6,-11 -6.7,-14.5 4.1,-3.5 6.7,-8.7 6.7,-14.5 0,-5.3 4.3,-9.6 9.6,-9.6 h 27.1 c 2.1,8.4 9.8,14.6 18.8,14.6 10.7,0 19.4,-8.7 19.4,-19.4 0.1,-10.7 -8.7,-19.5 -19.4,-19.5 z m -150.6,58.2 c -5.4,0 -9.8,-4.4 -9.8,-9.8 0,-5.4 4.4,-9.8 9.8,-9.8 5.4,0 9.8,4.4 9.8,9.8 0.1,5.4 -4.3,9.8 -9.8,9.8 z m 53.1,0 c -5.4,0 -9.8,-4.4 -9.8,-9.8 0,-5.4 4.4,-9.8 9.8,-9.8 5.4,0 9.8,4.4 9.8,9.8 0.1,5.4 -4.3,9.8 -9.8,9.8 z m 76.7,9.4 c 5.4,0 9.8,4.4 9.8,9.8 0,5.4 -4.4,9.8 -9.8,9.8 -5.4,0 -9.8,-4.4 -9.8,-9.8 0,-5.4 4.4,-9.8 9.8,-9.8 z m 20.8,-38.3 c -5.4,0 -9.8,-4.4 -9.8,-9.8 0,-5.4 4.4,-9.8 9.8,-9.8 5.4,0 9.8,4.4 9.8,9.8 0,5.4 -4.4,9.8 -9.8,9.8 z" />
			<g
   id="Group"
   transform="translate(56.528302,5.54717)">
				<path
   id="Path"
   class="st1"
   d="m 231.5,215.1 c 0,-1.2 -0.6,-1.7 -1.7,-1.7 h -3.2 v -6.5 h 7.3 c 3.4,0 5,1.5 5,4.4 v 1.5 c 0,1.3 -0.2,2.3 -0.2,2.3 h 0.2 c 1.6,-3.4 6.2,-9 14.8,-9 9.4,0 13.6,5.1 13.6,15.1 v 17.1 c 0,1.2 0.6,1.7 1.7,1.7 h 3.2 v 6.5 h -7.5 c -3.5,0 -5,-1.5 -5,-5 V 223 c 0,-5.5 -1.1,-9.9 -7.4,-9.9 -6.1,0 -10.9,4 -12.5,9.7 -0.5,1.6 -0.7,3.4 -0.7,5.3 v 18.5 h -7.6 z" />
				<path
   id="Shape_00000000193529482619031430000017104494194065144706_"
   class="st1"
   d="m 288,216.5 v -0.2 c 0,0 -6.8,-3.6 -6.8,-11.2 0,-7.6 6.1,-14.7 17.1,-14.7 10.5,0 17.2,6.3 17.2,14.9 0,8.1 -6.6,13.1 -6.6,13.1 v 0.2 c 5,2.9 8.2,6.7 8.2,12.6 0,8.6 -7.8,16.1 -19,16.1 -10.4,0 -19.2,-6.5 -19.2,-16.7 0,-9.1 9.1,-14.1 9.1,-14.1 z m 10.1,23.7 c 5.8,0 11.1,-3.8 11.1,-9.3 0,-4.8 -4.1,-6.9 -9.3,-9 -2.1,-0.9 -5.1,-2 -5.7,-2 -1.9,0 -7.5,4.5 -7.5,10.4 0.1,6 5.4,9.9 11.4,9.9 z m 4.1,-25 c 1.9,0 5.8,-4.6 5.8,-9.5 0,-5.1 -4.1,-8.3 -9.7,-8.3 -6,0 -9.5,3.4 -9.5,7.8 0,4.8 4.1,6.7 9,8.7 1.2,0.5 3.4,1.3 4.4,1.3 z" />
				<path
   id="Path_00000058555965575859210700000015047567490314538425_"
   class="st1"
   d="m 329.1,215.1 c 0,-1.2 -0.6,-1.7 -1.7,-1.7 h -3.2 v -6.5 h 7.3 c 3.4,0 5,1.5 5,4.4 v 1.5 c 0,1.3 -0.2,2.3 -0.2,2.3 h 0.2 c 1.6,-3.4 6.2,-9 14.8,-9 9.4,0 13.6,5.1 13.6,15.1 v 17.1 c 0,1.2 0.6,1.7 1.7,1.7 h 3.2 v 6.5 h -7.5 c -3.5,0 -5,-1.5 -5,-5 V 223 c 0,-5.5 -1.1,-9.9 -7.4,-9.9 -6.1,0 -10.9,4 -12.5,9.7 -0.5,1.6 -0.7,3.4 -0.7,5.3 v 18.5 h -7.6 z" />
				<polygon
   id="Path_00000115497908923389406520000000091938452908988329_"
   class="st1"
   points="378.7,246.3 378.7,238.3 386.4,238.3 386.4,246.3 " />
				<path
   id="Path_00000055681374598632779010000014193024355555402647_"
   class="st1"
   d="m 396.9,215.1 c 0,-1.2 -0.6,-1.7 -1.7,-1.7 H 392 v -6.5 h 7.4 c 3.5,0 5,1.5 5,5 v 26.3 c 0,1.2 0.6,1.7 1.7,1.7 h 3.2 v 6.5 h -7.4 c -3.5,0 -5,-1.5 -5,-5 z" />
				<path
   id="Shape_00000171688524155496246370000001569610129934685339_"
   class="st1"
   d="m 437.3,205.9 c 11.8,0 21.3,8.7 21.3,20.6 0,12 -9.5,20.7 -21.3,20.7 -11.8,0 -21.2,-8.7 -21.2,-20.7 0,-11.9 9.4,-20.6 21.2,-20.6 z m 0,34.8 c 7.5,0 13.6,-5.9 13.6,-14.2 0,-8.2 -6.1,-14 -13.6,-14 -7.4,0 -13.5,5.8 -13.5,14 0,8.3 6.1,14.2 13.5,14.2 z" />
			</g>
			<path
   id="Shape_00000015339104408626004630000007000703904557706642_"
   class="st0"
   d="m 456.9,210.1 c -3.9,0 -7,-3.2 -7,-7 0,-3.8 3.2,-7 7,-7 3.8,0 7,3.2 7,7 0,3.8 -3.2,7 -7,7 z m 0,-10.7 c -2,0 -3.7,1.6 -3.7,3.7 0,2.1 1.6,3.7 3.7,3.7 2.1,0 3.7,-1.6 3.7,-3.7 0,-2.1 -1.7,-3.7 -3.7,-3.7 z" />
		</g>
	</g>
</g>
</svg>
