<?xml version="1.0" encoding="UTF-8" standalone="no"?>
<svg
   width="120"
   height="48"
   viewBox="0 0 120 47.636339"
   version="1.1"
   id="svg1"
   sodipodi:docname="zapier.svg"
   inkscape:version="1.3.2 (091e20e, 2023-11-25)"
   xmlns:inkscape="http://www.inkscape.org/namespaces/inkscape"
   xmlns:sodipodi="http://sodipodi.sourceforge.net/DTD/sodipodi-0.dtd"
   xmlns="http://www.w3.org/2000/svg"
   xmlns:svg="http://www.w3.org/2000/svg">
  <defs
     id="defs1" />
  <sodipodi:namedview
     id="namedview1"
     pagecolor="#ffffff"
     bordercolor="#000000"
     borderopacity="0.25"
     inkscape:showpageshadow="2"
     inkscape:pageopacity="0.0"
     inkscape:pagecheckerboard="0"
     inkscape:deskcolor="#d1d1d1"
     inkscape:zoom="1.6484375"
     inkscape:cx="128"
     inkscape:cy="58.843602"
     inkscape:window-width="1312"
     inkscape:window-height="449"
     inkscape:window-x="0"
     inkscape:window-y="25"
     inkscape:window-maximized="0"
     inkscape:current-layer="svg1" />
  <path
     d="m 69.694309,20.900811 h -2.41426 c -0.04919,-0.19753 -0.08703,-0.426847 -0.111252,-0.687194 a 7.8788855,7.8788855 0 0 1 0,-1.522724 c 0.0246,-0.259589 0.06168,-0.488149 0.111252,-0.687572 h 6.017862 V 37.05894 a 8.9936829,8.9936829 0 0 1 -0.910077,0.110874 12.615072,12.615072 0 0 1 -0.910456,0.03671 12.192387,12.192387 0 0 1 -0.872236,-0.03671 8.9668157,8.9668157 0 0 1 -0.909699,-0.111252 v -16.15813 z m 20.948806,4.792191 c 0,-0.693627 -0.09309,-1.355845 -0.278132,-1.987791 -0.185042,-0.631945 -0.459012,-1.181776 -0.817366,-1.652519 -0.358356,-0.470742 -0.817368,-0.847639 -1.374766,-1.132582 -0.557399,-0.284943 -1.219617,-0.427604 -1.987412,-0.427604 -1.510615,0 -2.667794,0.458633 -3.473052,1.374765 -0.805257,0.916132 -1.294164,2.190997 -1.467097,3.825731 z m -9.434909,2.748395 c 0.04919,2.080123 0.588049,3.603225 1.615812,4.568551 1.027763,0.965325 2.544433,1.449312 4.550009,1.449312 1.757716,0 3.429156,-0.310297 5.013939,-0.928998 0.19753,0.3716 0.358355,0.823422 0.482473,1.355846 a 8.840805,8.840805 0 0 1 0.222883,1.57835 c -0.816609,0.348137 -1.714956,0.606591 -2.692391,0.780282 -0.977434,0.17369 -2.062337,0.259968 -3.249788,0.259968 -1.733878,0 -3.21649,-0.242182 -4.457677,-0.724656 -1.241186,-0.482474 -2.259867,-1.16437 -3.065124,-2.043417 -0.805258,-0.879048 -1.392551,-1.918541 -1.764529,-3.120373 -0.371977,-1.201832 -0.557398,-2.519458 -0.557398,-3.955904 0,-1.411471 0.179366,-2.730232 0.538477,-3.956282 0.359111,-1.22605 0.910456,-2.290141 1.652519,-3.193785 0.742063,-0.903644 1.677872,-1.622246 2.804778,-2.154291 1.126907,-0.532045 2.45702,-0.798445 3.992988,-0.798445 1.312328,0 2.463453,0.227045 3.454888,0.66865 0.991436,0.441605 1.820155,1.058793 2.488806,1.839075 0.668652,0.780283 1.1761,1.708902 1.522724,2.785103 0.346624,1.076198 0.520315,2.247758 0.520315,3.510893 0,0.346623 -0.01324,0.711411 -0.03784,1.095497 a 37.330576,37.330576 0 0 1 -0.07417,0.984246 l -12.963209,7.57e-4 z M 98.333551,18.003321 a 10.380936,10.380936 0 0 1 0.779904,-0.111252 8.0071666,8.0071666 0 0 1 0.779905,-0.03671 c 0.27246,0 0.54491,0.01249 0.81737,0.03671 0.27245,0.02422 0.51993,0.06244 0.74319,0.111252 0.0738,0.3716 0.14758,0.861263 0.22213,1.467098 0.0746,0.605835 0.11201,1.120095 0.11201,1.541645 0.51994,-0.841585 1.21091,-1.572675 2.0612,-2.191754 0.85029,-0.61908 1.94995,-0.92862 3.28726,-0.92862 0.1979,0 0.40225,0.0064 0.61302,0.01892 a 5.5096572,5.5096572 0 0 1 0.53848,0.05525 6.0318637,6.0318637 0 0 1 0.11163,0.706113 c 0.0246,0.24748 0.0367,0.50707 0.0367,0.779527 0,0.297429 -0.0189,0.607348 -0.0552,0.928619 a 19.239905,19.239905 0 0 1 -0.1298,0.928619 2.5591904,2.5591904 0 0 0 -0.61302,-0.07417 h -0.50177 c -0.66828,0 -1.30628,0.09309 -1.91287,0.27851 -0.60659,0.185421 -1.1515,0.514638 -1.63473,0.983867 -0.48323,0.469229 -0.87035,1.114798 -1.15037,1.932165 -0.28002,0.817366 -0.4276,1.869348 -0.4276,3.157079 v 9.472372 a 9.0326592,9.0326592 0 0 1 -0.91008,0.111252 c -0.33376,0.02497 -0.63724,0.03671 -0.9097,0.03671 a 12.498521,12.498521 0 0 1 -0.910077,-0.03671 10.830488,10.830488 0 0 1 -0.94754,-0.110875 z M 72.264473,7.8286198 A 3.6917731,3.6917731 0 0 1 72.027588,9.130352 3.6966924,3.6966924 0 0 1 70.725476,9.3676154 h -0.0053 A 3.6929083,3.6929083 0 0 1 69.418069,9.1307304 3.6879889,3.6879889 0 0 1 69.180805,7.8286198 v -0.00568 c 0,-0.4578768 0.08401,-0.896833 0.236507,-1.3017322 a 3.6845833,3.6845833 0 0 1 1.302489,-0.2368811 h 0.0049 a 3.6781503,3.6781503 0 0 1 1.302111,0.236885 3.6857185,3.6857185 0 0 1 0.236885,1.3021106 v 0.00568 h 7.57e-4 z M 76.803128,6.7978296 H 73.204444 L 75.749255,4.2530188 A 6.1911746,6.1911746 0 0 0 74.295781,2.7999224 l -2.54519,2.5448108 V 1.7456707 a 6.1953371,6.1953371 0 0 0 -1.023979,-0.085899 h -0.0064 c -0.349305,0 -0.691011,0.030273 -1.02439,0.085899 V 5.3451116 L 67.150255,2.7999224 a 6.1571176,6.1571176 0 0 0 -0.786716,0.6656241 l -0.0011,0.00114 A 6.2047973,6.2047973 0 0 0 65.697193,4.253402 l 2.545569,2.5448108 h -3.599819 c 0,0 -0.08552,0.6762196 -0.08552,1.0254925 v 0.00378 c 0,0.3496513 0.02952,0.6924913 0.0859,1.0217084 h 3.599819 l -2.545948,2.5444323 a 6.2097167,6.2097167 0 0 0 1.453854,1.453475 l 2.545189,-2.544811 v 3.599441 c 0.333002,0.05563 0.674327,0.08514 1.022844,0.08552 h 0.0087 a 6.221069,6.221069 0 0 0 1.022844,-0.08552 v -3.595279 l 2.545568,2.545189 a 6.2138792,6.2138792 0 0 0 0.787094,-0.665625 h 7.57e-4 a 6.2259883,6.2259883 0 0 0 0.664833,-0.787093 L 73.204066,8.8533555 h 3.599819 c 0.05563,-0.3330012 0.08514,-0.6747059 0.08514,-1.023222 v -0.00908 c 0,-0.3428399 -0.02876,-0.6811389 -0.08514,-1.0228436 z M 11.563641,36.539382 21.592655,20.937517 H 12.75185 c -0.07417,-0.445768 -0.110875,-0.940351 -0.110875,-1.48564 0,-0.519936 0.03784,-1.002788 0.111631,-1.449312 H 27.05274 l 0.186178,0.483608 -10.103561,15.637816 h 9.471616 a 10.262493,10.262493 0 0 1 0.111631,1.522346 c 0,0.495716 -0.03708,0.966082 -0.111253,1.41147 H 11.749818 L 11.563641,36.539004 Z M 40.49918,28.110666 c -0.371599,-0.04919 -0.841963,-0.09839 -1.411471,-0.148336 -0.569508,-0.04995 -1.051982,-0.07417 -1.448177,-0.07417 -1.53559,0 -2.705636,0.284943 -3.509759,0.854451 -0.804121,0.569508 -1.210913,1.436068 -1.210913,2.59968 0,0.74282 0.135471,1.324437 0.408684,1.745608 0.273212,0.421171 0.613025,0.74282 1.021708,0.965704 0.408684,0.222885 0.860126,0.359491 1.35471,0.408684 0.494582,0.04919 0.965703,0.07417 1.411471,0.07417 a 17.361475,17.361475 0 0 0 1.764528,-0.09309 c 0.606592,-0.0613 1.145071,-0.155149 1.615812,-0.278511 v -6.054568 z m 0,-3.602468 c 0,-1.4618 -0.371599,-2.476697 -1.114041,-3.046204 -0.742441,-0.569508 -1.81637,-0.854451 -3.231625,-0.854451 -0.867317,0 -1.677873,0.06811 -2.43318,0.204341 a 18.614014,18.614014 0 0 0 -2.210674,0.5381 c -0.470743,-0.817367 -0.705359,-1.794801 -0.705359,-2.934573 0.840829,-0.272456 1.769449,-0.482474 2.785103,-0.631189 1.015653,-0.148716 1.993088,-0.227047 2.934573,-0.227047 2.47594,0 4.358154,0.567616 5.645885,1.69036 1.287731,1.122744 1.931786,2.928898 1.931786,5.404838 v 11.919931 c -0.867317,0.197909 -1.919299,0.402251 -3.157457,0.613025 a 22.625165,22.625165 0 0 1 -3.788646,0.315973 c -1.213185,0 -2.30944,-0.110874 -3.287253,-0.334136 -0.977812,-0.223263 -1.808045,-0.581617 -2.488806,-1.077714 a 4.9912348,4.9912348 0 0 1 -1.579107,-1.893944 c -0.370842,-0.768174 -0.55702,-1.696415 -0.55702,-2.786237 0,-1.064469 0.216451,-1.999521 0.650109,-2.804779 a 5.8574165,5.8574165 0 0 1 1.764529,-2.005576 c 0.742819,-0.531666 1.596892,-0.928619 2.562974,-1.188209 0.966082,-0.259589 1.980979,-0.390519 3.046205,-0.390519 0.792391,0 1.4425,0.01892 1.950328,0.056 0.507825,0.03708 0.934674,0.08022 1.281297,0.129794 v -0.701573 z m 11.29177,9.433775 a 7.2889435,7.2889435 0 0 0 1.448934,0.371599 c 0.495718,0.07455 1.139016,0.111632 1.931786,0.111632 0.891156,0 1.708145,-0.141904 2.450965,-0.426848 a 4.8663593,4.8663593 0 0 0 1.913243,-1.31876 c 0.532424,-0.594104 0.953595,-1.342601 1.262756,-2.247759 0.309161,-0.905158 0.464688,-1.97379 0.464688,-3.21649 0,-1.980979 -0.365923,-3.557059 -1.095877,-4.717265 -0.729954,-1.160207 -1.926109,-1.745608 -3.584304,-1.745608 -0.61908,0 -1.213941,0.111253 -1.77853,0.334515 -0.564588,0.223262 -1.077713,0.557398 -1.52348,1.002788 -0.445768,0.445389 -0.804501,1.009599 -1.076957,1.690359 -0.272455,0.680761 -0.408683,1.491695 -0.408683,2.43318 v 7.724873 z M 48.113557,18.007106 c 0.252021,-0.04919 0.505556,-0.08704 0.761361,-0.111253 a 8.654627,8.654627 0 0 1 0.798825,-0.03671 c 0.246724,0 0.50707,0.01287 0.779526,0.03671 0.272455,0.02384 0.532045,0.06244 0.779525,0.111253 0.02422,0.05033 0.05563,0.204341 0.09309,0.464688 l 0.111252,0.83553 0.111253,0.854451 c 0.03708,0.272456 0.05563,0.446524 0.05563,0.520315 0.247102,-0.395818 0.544911,-0.779526 0.891157,-1.151504 0.346246,-0.371977 0.762119,-0.705735 1.248756,-1.002788 0.486635,-0.297052 1.027383,-0.532423 1.634732,-0.706114 0.607349,-0.17369 1.281298,-0.261103 2.024496,-0.261103 1.114041,0 2.148237,0.186178 3.101831,0.557777 a 6.2059326,6.2059326 0 0 1 2.450965,1.727066 c 0.681139,0.780282 1.212806,1.770961 1.596894,2.971659 0.384086,1.200696 0.575183,2.619357 0.575183,4.253333 0,3.26871 -0.88548,5.826009 -2.656441,7.670381 -1.770961,1.844373 -4.277553,2.766939 -7.521288,2.766939 a 12.930288,12.930288 0 0 1 -1.671439,-0.111253 c -0.569886,-0.07455 -1.064847,-0.174069 -1.486018,-0.297052 v 8.729174 a 10.793782,10.793782 0 0 1 -0.946784,0.111253 c -0.334515,0.02422 -0.638379,0.03671 -0.910456,0.03671 a 12.603341,12.603341 0 0 1 -0.909699,-0.03671 8.9724919,8.9724919 0 0 1 -0.909699,-0.111253 V 18.007106 Z"
     fill="#ff4a00"
     id="path1"
     style="stroke-width:0.378411" />
</svg>
