<?xml version="1.0" encoding="utf-8"?>
<!-- Generator: Adobe Illustrator 25.0.1, SVG Export Plug-In . SVG Version: 6.00 Build 0)  -->
<svg version="1.1" id="Warstwa_1" xmlns="http://www.w3.org/2000/svg" xmlns:xlink="http://www.w3.org/1999/xlink" x="0px" y="0px"
	 viewBox="0 0 100 100" style="enable-background:new 0 0 100 100;" xml:space="preserve">
<style type="text/css">
	.st0{fill:#0369A1;}
	.st1{fill:#F59E0B;stroke:#0369A1;stroke-width:1.1666;stroke-miterlimit:10;}
	.st2{fill:#FFFFFF;stroke:#0369A1;stroke-width:1.9443;stroke-miterlimit:10;}
	.st3{fill:none;}
</style>
<g>
	<g>
		<path class="st0" d="M86.7,99.6h-73c-7.2,0-13-5.8-13-13v-73c0-7.2,5.8-13,13-13h73c7.2,0,13,5.8,13,13v73
			C99.7,93.8,93.9,99.6,86.7,99.6z"/>
		<g>
			<path class="st1" d="M90,51.4l-13.7,8.4l-13,8l-0.6-9.3c-0.1-1.9,0.9-3.7,2.6-4.8l1.5-0.9l0.3-0.2l16.5-10.1c0,0,0,0,0,0l5.6-3.4
				c-0.2-3.6-0.5-7.1-0.7-10.7L55.2,48.8c-1.7,1-2.7,2.9-2.6,4.8l2.3,37.1c-0.3,0.2-0.5,0.3-0.8,0.5l0.1,0.1l0.4-0.3l8.1-4.9l1.7-1
				L64,79.6c0-0.6-0.1-1.2-0.1-1.8l21.2-13l2.5-1.6l3.1-1.9C90.5,58.1,90.2,54.7,90,51.4z"/>
			<path class="st2" d="M49.4,89.6L49,79.9l0-0.7l0-0.1l-1.3-26.5c-0.1-2.5,1.2-4.8,3.4-6.2l33.6-20.1l-0.3-0.1l-10.5-5.1
				c-0.2,0.1-0.4,0.2-0.6,0.4c-11.3,6.7-22.6,13.4-33.9,20.2c-1.7,1-2.7,2.8-2.6,4.7L38,73.9l0,0.1l0,0.7c-0.6-0.3-1.2-0.6-1.8-0.8
				l0,0l0-0.7l0-0.1l-1.3-26.6c-0.1-2.5,1.2-4.8,3.4-6.2l33.6-20.1l-0.3-0.1L61.1,15l-0.6,0.4c-11.3,6.7-22.6,13.5-33.9,20.2
				c-1.7,1-2.7,2.8-2.6,4.7l1.4,27.5l0,0.1l0,0.7c-0.6-0.3-1.2-0.6-1.8-0.8l-1.4-27.4c-0.1-1.5,0.4-2.9,1.2-4.1
				c0.6-1,1.5-1.9,2.5-2.6L59,14l0.3,0.1l0.1-0.1l-9.2-4.5c-2.1-1-4.6-0.9-6.6,0.3L12.7,28.3c-2,1.2-3.1,3.3-3,5.4l1.7,34.1
				C11.5,70,12.9,72,15,73L49.4,89.6z"/>
		</g>
	</g>
	<rect x="0.7" y="0.6" class="st3" width="99" height="99"/>
</g>
</svg>
